<?xml version="1.0" encoding="UTF-8"?>
<svg width="42px" height="30px" viewBox="0 0 42 30" version="1.1" xmlns="http://www.w3.org/2000/svg" xmlns:xlink="http://www.w3.org/1999/xlink">
    <!-- Generator: Sketch 64 (93537) - https://sketch.com -->
    <title>MasterCard</title>
    <desc>Created with Sketch.</desc>
    <g id="Symbols" stroke="none" stroke-width="1" fill="none" fill-rule="evenodd">
        <g id="Add-To-Cart" transform="translate(-234.000000, -120.000000)" fill-rule="nonzero">
            <g id="MasterCard">
                <g transform="translate(234.000000, 120.000000)">
                    <path d="M42,26 C42,28.209 40.209,30 38,30 L4,30 C1.791,30 0,28.209 0,26 L0,4 C0,1.791 1.791,0 4,0 L38,0 C40.209,0 42,1.791 42,4 L42,26 Z" id="Path" fill="#3F51B5"></path>
                    <path d="M27,5 C21.4771525,5 17,9.4771525 17,15 C17,20.5228475 21.4771525,25 27,25 C32.5228475,25 37,20.5228475 37,15 C37,9.4771525 32.5228475,5 27,5 Z" id="Path" fill="#FFC107"></path>
                    <path d="M19.014,21 C18.55,20.383 18.151,19.716 17.838,19 L23.163,19 C23.441,18.364 23.659,17.696 23.8,17 L17.202,17 C17.07,16.354 17,15.686 17,15 L24,15 C24,14.314 23.93,13.646 23.799,13 L17.201,13 C17.343,12.304 17.56,11.636 17.838,11 L23.163,11 C22.85,10.284 22.452,9.617 21.987,9 L19.014,9 C19.451,8.42 19.944,7.878 20.495,7.405 C18.747,5.909 16.481,5 14,5 C8.477,5 4,9.477 4,15 C4,20.523 8.477,25 14,25 C17.269,25 20.162,23.425 21.986,21 L19.014,21 Z" id="Path" fill="#FF3D00"></path>
                </g>
            </g>
        </g>
    </g>
</svg>