<svg xmlns="http://www.w3.org/2000/svg" width="225" height="205" fill="none" viewBox="0 0 225 205">
    <g clip-path="url(#clip0)">
        <circle cx="113" cy="101" r="78" fill="#FEB091"/>
        <path fill="#1F1F1F" d="M66.973 61.356l2.073-1.956 6.872 4.944-4.43-7.245 2.002-1.89 9.192 9.44-1.422 1.341-6.275-6.378 4.888 7.685-1.209 1.14-7.421-5.363 6.011 6.693-1.434 1.352-8.847-9.763zM84.33 62.464c-1.052-.462-1.913-1.272-2.439-2.295l-2.548-4.203c-.663-.931-.98-2.065-.898-3.207.138-.923.805-1.75 2-2.48 1.185-.723 2.222-.933 3.11-.63 1.05.446 1.909 1.247 2.43 2.263l2.556 4.216c.662.936.978 2.074.896 3.219-.135.94-.795 1.772-1.98 2.495-1.195.73-2.238.937-3.127.622zm2.675-3.14c-.058-.435-.216-.85-.46-1.215l-3.232-5.329c-.206-.381-.5-.709-.856-.955-.165-.062-.343-.086-.52-.07-.175.017-.346.074-.497.167-.151.092-.28.218-.375.367-.096.149-.157.318-.178.494.054.431.21.843.453 1.202l3.231 5.329c.21.388.505.723.862.98.166.065.345.09.524.075.178-.016.35-.074.502-.168.153-.094.281-.222.376-.374.095-.152.153-.324.17-.502zM87.671 46.563l1.751-.659 5.139 5.39-2.398-6.422 2.086-.785 4.613 12.355-1.69.636-5.293-5.801 2.552 6.833-2.147.809-4.613-12.356zM98.299 43.017l5.633-1.104.353 1.823-3.016.591.665 3.439 2.33-.457.356 1.84-2.33.456.786 4.062 3.048-.598.346 1.792-5.665 1.11-2.506-12.954zM109.412 49.42l-2.857-7.864 2.518-.097 1.583 4.587 1.13-4.691 2.453-.094-2.244 8.06.191 5.227-2.583.099-.191-5.227zM123.105 42.108l3.262.75c1.031.173 1.985.657 2.733 1.389.575.64.717 1.59.427 2.849-.111.645-.426 1.238-.898 1.692-.217.183-.467.322-.738.407-.27.086-.554.117-.837.092.326.107.625.282.878.513.253.23.454.513.59.828.258.743.28 1.549.061 2.305-.581 2.52-2.117 3.494-4.609 2.921l-3.833-.88 2.964-12.866zm.803 11.79c.238.083.492.11.743.082.25-.03.491-.115.705-.25.397-.377.656-.877.736-1.42.179-.55.166-1.147-.037-1.689-.138-.218-.322-.403-.539-.541-.218-.138-.464-.226-.719-.258l-.697-.16-.937 4.066.745.17zm1.263-5.847c.228.083.472.114.713.091.242-.022.475-.098.685-.22.358-.343.592-.796.663-1.287.074-.22.098-.454.07-.684-.028-.231-.106-.453-.23-.649-.338-.373-.795-.617-1.292-.69l-.491-.113-.783 3.4.665.152zM136.174 45.918l2.725 1.19-2.953 13.117-2.264-.988.713-2.855-1.907-.832-1.621 2.457L128.558 57l7.616-11.08zm-1.353 8.836l1.394-5.19-2.839 4.559 1.445.631zM138.02 60.402c-.003-1.159.378-2.286 1.083-3.206l2.623-3.932c.579-1.016 1.477-1.81 2.553-2.262.895-.296 1.928-.053 3.099.73 1.116.748 1.724 1.55 1.824 2.408.054 1.013-.256 2.013-.873 2.818l-.615.921-2.162-1.446.678-1.017c.18-.26.339-.534.477-.818.099-.204.13-.435.087-.657-.035-.127-.094-.245-.175-.347-.081-.103-.181-.189-.295-.252-.14-.127-.315-.207-.502-.23-.187-.024-.377.01-.544.098-.38.279-.701.63-.944 1.035l-3.327 4.99c-.287.379-.481.82-.566 1.287-.01.181.032.36.121.518.089.157.222.285.382.368.133.12.3.194.477.212.177.018.356-.02.51-.11.371-.284.686-.636.926-1.037l.715-1.071 2.161 1.447-.605.908c-.524.903-1.34 1.599-2.313 1.973-.842.266-1.826.023-2.952-.731-1.161-.778-1.776-1.643-1.843-2.597zM153.46 56.48l1.91 1.861-3.879 4 5.591-2.332 1.864 1.816-5.899 2.532-3.148 7.076-1.945-1.895 2.65-5.651-.814.208-3.606 3.718-1.91-1.861 9.186-9.472zM78.354 134.55l2.058 1.965-4.56 7.157 6.982-4.844 1.988 1.898-8.915 9.733-1.411-1.348 6.02-6.64-7.396 5.326-1.2-1.145 4.95-7.732-6.349 6.395-1.423-1.359 9.256-9.406zM80.222 152.398c-.07-1.15.257-2.289.925-3.227l2.568-4.199c.524-1.018 1.386-1.821 2.437-2.272.882-.3 1.92-.085 3.11.647 1.183.725 1.842 1.553 1.978 2.483.082 1.141-.237 2.274-.902 3.204l-2.576 4.213c-.53 1.019-1.395 1.823-2.448 2.275-.895.31-1.934.103-3.116-.622-1.192-.731-1.85-1.565-1.976-2.502zm4.004.946c.36-.252.657-.583.868-.969l3.257-5.324c.244-.359.401-.771.458-1.201-.02-.176-.08-.346-.176-.495-.095-.15-.223-.276-.373-.368-.151-.093-.321-.149-.498-.166-.176-.017-.353.006-.52.068-.357.246-.651.573-.859.954l-3.256 5.326c-.249.364-.412.78-.478 1.217.018.178.077.35.172.501.096.152.225.279.378.372.153.092.325.148.503.163.178.015.358-.012.524-.078zM93.57 146.006l1.75.657.332 7.453 2.407-6.426 2.085.782-4.632 12.363-1.69-.633-.176-7.866-2.563 6.839-2.145-.805 4.632-12.364zM101.605 148.799l5.635 1.076-.349 1.825-3.018-.576-.659 3.442 2.331.445-.353 1.841-2.331-.446-.779 4.066 3.049.583-.344 1.793-5.667-1.082 2.485-12.967zM109.694 157.985l-2.314-8.043 2.519.077 1.266 4.685 1.447-4.603 2.454.074-2.789 7.889-.166 5.228-2.583-.078.166-5.229zM119.698 149.682l3.257-.789c1-.306 2.07-.3 3.065.019.8.315 1.351 1.1 1.652 2.357.188.627.17 1.298-.051 1.914-.112.261-.275.497-.479.695-.204.197-.445.352-.709.456.339-.05.685-.027 1.014.066.33.094.636.256.898.476.562.549.94 1.26 1.081 2.034.602 2.514-.34 4.072-2.827 4.674l-3.825.928-3.076-12.83zm4.498 4.39c.241-.028.473-.109.679-.238.207-.128.382-.3.515-.504.168-.466.176-.975.021-1.446-.032-.23-.115-.45-.242-.644-.128-.193-.297-.356-.495-.476-.468-.183-.986-.196-1.464-.039l-.49.119.812 3.389.664-.161zm1.472 5.794c.251-.033.49-.122.702-.26.211-.139.389-.323.52-.539.188-.515.198-1.078.027-1.599-.085-.573-.362-1.1-.785-1.494-.22-.133-.468-.216-.724-.243-.256-.026-.515.005-.759.092l-.695.168.972 4.055.742-.18zM129.881 146.683l2.711-1.232 7.732 10.97-2.251 1.023-1.636-2.439-1.896.862.731 2.85-2.296 1.043-3.095-13.077zm5.636 6.916l-2.908-4.508 1.471 5.161 1.437-.653zM142.931 153.72c-1.076-.421-1.982-1.189-2.576-2.182l-2.682-3.882c-.729-.911-1.136-2.039-1.158-3.208.055-.942.661-1.816 1.82-2.622 1.105-.768 2.073-1.042 2.906-.821.96.32 1.773.974 2.293 1.844l.629.91-2.139 1.487-.694-1.004c-.175-.263-.37-.511-.583-.744-.153-.167-.356-.279-.579-.321-.129-.014-.261-.001-.386.036-.125.038-.241.1-.342.183-.169.084-.309.218-.399.384-.091.166-.129.356-.109.543.118.457.327.885.613 1.259l3.403 4.926c.247.406.585.748.987.998.164.076.346.102.525.076.179-.026.346-.103.483-.221.159-.08.289-.209.372-.368.082-.158.112-.339.086-.516-.127-.45-.338-.871-.621-1.242l-.731-1.058 2.139-1.487.62.897c.645.818.99 1.833.978 2.877-.063.882-.651 1.711-1.765 2.485-1.15.8-2.18 1.056-3.09.771zM142.256 139.139l1.876-1.901 3.95 3.915-2.268-5.62 1.83-1.855 2.465 5.93 7.028 3.204-1.911 1.937-5.611-2.695.199.816 3.673 3.641-1.876 1.902-9.355-9.274z"/>
        <path fill="#1F1F1F" d="M78.724 93.79l-.715 13.421 2.207-.022-.931-13.404-.56.005zm18.178-.248l-.333.003.042 5.215 1.54-.016c.818-.007 1.22-.866 1.206-2.575-.009-1.135-.175-1.859-.499-2.172-.576-.382-1.27-.544-1.956-.455zm18.738-.112l-.715 13.42 2.207-.022-.931-13.404-.561.005zm80.403-14.098l-9.321.091c-4.9-16.02-14.832-30.017-28.319-39.908-13.487-9.89-29.807-15.145-46.531-14.981-16.723.163-32.956 5.736-46.282 15.888C52.265 50.575 42.56 64.764 37.918 80.877l-9.322.092L17.83 91.956l.182 22.623 10.943 10.775 9.321-.091c4.9 16.02 14.832 30.018 28.32 39.908 13.486 9.89 29.806 15.145 46.53 14.981 16.723-.163 32.956-5.736 46.282-15.888 13.325-10.152 23.031-24.342 27.672-40.455l9.321-.091 10.768-10.987-.182-22.624-10.943-10.775zm-84.152-52.518c16.113-.137 31.838 4.897 44.876 14.368 13.037 9.47 22.702 22.879 27.581 38.264l-3.441.034c-4.8-14.495-14.064-27.084-26.46-35.957-12.396-8.873-27.286-13.572-42.53-13.423-15.244.149-30.056 5.139-42.307 14.252-12.252 9.114-21.312 21.882-25.878 36.469l-3.44.033c4.63-15.478 14.078-29.074 26.961-38.797 12.883-9.724 28.525-15.065 44.638-15.243zm62.707 71.675l.042 5.249-5.814.057.051 6.372 6.463-.063.044 5.46-12.733.125-.225-27.966 12.33-.12.043 5.424-6.059.06.044 5.459 5.814-.057zm-29.371-18.66c-3.673-5.37-8.608-9.752-14.371-12.758-5.763-3.006-12.177-4.545-18.677-4.481-6.501.063-12.89 1.727-18.603 4.846C87.863 70.554 83 75.03 79.413 80.472l-33.288.325c4.531-13.96 13.324-26.145 25.134-34.833 11.81-8.689 26.04-13.44 40.676-13.584 14.637-.143 28.941 4.33 40.889 12.786 11.948 8.457 20.935 20.469 25.691 34.337l-33.288.326zm.431 13.448l-.044-5.39 13.486-.132.043 5.39-3.66.035.181 22.577-6.164.06-.182-22.576-3.66.035zM116.11 79.189l-3.49-1.856-3.46 1.924.688-3.904-2.889-2.7 3.915-.557 1.675-3.594 1.731 3.56 3.924.48-2.845 2.757.751 3.89zm-6.588 45.081l3.49 1.856 3.46-1.924-.688 3.904 2.889 2.701-3.916.556-1.674 3.594-1.731-3.561-3.924-.479 2.845-2.757-.751-3.89zm8.595-8.146l-.471-4.209-3.118.03-.351 4.217-5.99.059 2.927-27.997 9.651-.094 3.307 27.936-5.955.058zm8.538-37.562l-2.476-1.317-2.455 1.365.488-2.77-2.05-1.916 2.778-.395 1.188-2.55 1.229 2.527 2.784.34-2.019 1.956.533 2.76zm-4.56 46.109l2.476 1.317 2.455-1.365-.489 2.77 2.05 1.916-2.778.395-1.188 2.549-1.228-2.526-2.784-.34 2.018-1.956-.532-2.76zm5.303-8.638l-.225-27.966 6.34-.062 2.945 13.35-.108-13.377 5.955-.059.225 27.966-6.024.059-3.195-13.962.112 13.992-6.025.059zm-28.42 8.864l2.475 1.317 2.455-1.365-.488 2.77 2.05 1.916-2.778.395-1.188 2.549-1.229-2.526-2.784-.34 2.019-1.956-.533-2.76zm6.206-26.23c-.084.447-.237.878-.454 1.277-.236.387-.539.729-.894 1.01-.431.348-.926.609-1.456.769.513.076 1.001.272 1.423.574.364.268.646.634.814 1.055.154.375.268.765.342 1.164.065.397.097.799.098 1.201.037 4.624.042 8.135.014 10.534l-6.025.059-.087-10.902c.008-.35-.039-.699-.14-1.034-.04-.122-.104-.233-.189-.327-.085-.095-.19-.17-.306-.222-.219-.102-.453-.168-.693-.195-.222-.021-.561-.029-1.016-.025l.102 12.728-6.235.061-.225-27.966 9.458-.092c.846-.029 1.689.097 2.49.37.616.21 1.177.559 1.637 1.02.437.488.762 1.066.951 1.694.229.688.385 1.398.463 2.12.076.707.118 1.564.126 2.57.004.527-.001.957-.016 1.291-.028.426-.088.85-.182 1.266zm-1.647-19.879l-2.476-1.317-2.455 1.365.489-2.77-2.05-1.916 2.778-.395 1.188-2.55 1.228 2.527 2.784.34-2.018 1.956.532 2.76zm-16.38 37.638l-5.956.059-.471-4.209-3.118.03-.351 4.217-5.99.059 2.927-27.997 9.65-.094 3.308 27.935zM52.85 88.794l5.99-.059.161 20.136c.003.305.008.545.015.72.015.241.047.481.093.719.037.25.116.493.234.718.112.186.266.344.45.46.22.139.477.206.737.195.22.003.437-.041.639-.129.177-.081.325-.214.426-.382.097-.157.18-.322.25-.494.072-.204.114-.417.126-.633.02-.264.034-.466.039-.606.004-.141.005-.34.003-.597l-.162-20.136 5.99-.059.166 20.558c.02 2.527-.569 4.453-1.766 5.776-1.199 1.322-3.076 1.99-5.633 2.003-2.604.037-4.515-.594-5.734-1.892-1.219-1.299-1.839-3.213-1.859-5.741l-.165-20.557zm26.92 36.064c3.672 5.37 8.607 9.751 14.37 12.757 5.763 3.006 12.177 4.545 18.677 4.481 6.501-.063 12.889-1.727 18.603-4.846 5.713-3.118 10.577-7.594 14.163-13.036l33.288-.325c-4.532 13.959-13.324 26.145-25.134 34.834-11.81 8.688-26.039 13.44-40.676 13.583-14.638.143-28.941-4.33-40.89-12.786-11.947-8.457-20.934-20.468-25.69-34.337l33.288-.325zM33.71 108.609l-.098-12.113c-.032-1.174.136-2.346.498-3.464.26-.841.692-1.62 1.269-2.286.524-.552 1.155-.991 1.855-1.29.637-.295 1.31-.505 2-.626 1.427-.206 2.875-.202 4.3.01.63.094 1.242.28 1.817.554.48.233.932.52 1.347.855.396.328.723.73.964 1.185.245.449.454.916.625 1.398.179.541.304 1.099.372 1.665.087.648.147 1.253.181 1.815.033.561.053 1.222.06 1.983l-5.885.058-.018-2.212c.007-.374-.044-.746-.149-1.105-.064-.244-.204-.46-.399-.62-.14-.105-.298-.187-.466-.24-.154-.042-.313-.06-.473-.057-.29-.008-.578.043-.849.148-.192.08-.365.202-.505.356-.153.228-.245.493-.265.767-.053.346-.086.695-.096 1.045-.01.328-.012.844-.006 1.546l.087 10.814c0 .346.018.691.053 1.035.038.31.107.616.208.911.088.299.271.559.523.741.274.177.596.263.921.246.257.024.515-.034.736-.168.221-.133.394-.334.493-.573.239-.764.336-1.565.288-2.364l-.026-3.231-1.646.017-.04-4.828 7.462-.073.13 16.292-2.399.023-1.07-2.36c-.514.875-1.257 1.593-2.149 2.075-.891.482-1.897.711-2.908.661-4.448.043-6.696-2.82-6.742-8.59zm79.396 69.263c-16.113.137-31.838-4.897-44.875-14.367-13.038-9.471-22.703-22.879-27.582-38.265l3.44-.034c4.8 14.496 14.065 27.084 26.46 35.957 12.397 8.873 27.287 13.572 42.531 13.423 15.244-.149 30.056-5.139 42.307-14.252 12.252-9.114 21.312-21.882 25.878-36.468l3.44-.034c-4.63 15.479-14.078 29.074-26.961 38.798-12.883 9.723-28.525 15.065-44.638 15.242zm78.809-62.469l-12.732.124-.226-27.966 12.33-.12.044 5.424-6.06.06.044 5.46 5.815-.058.042 5.249-5.815.057.052 6.373 6.462-.063.044 5.46z"/>
    </g>
    <defs>
        <clipPath id="clip0">
            <path fill="#fff" d="M0 0H186.816V155.68H0z" transform="rotate(17.511 23.42 152.072)"/>
        </clipPath>
    </defs>
</svg>
